<?xml version="1.0" encoding="UTF-8"?>
<svg width="600px" height="103px" viewBox="0 0 600 103" version="1.1" xmlns="http://www.w3.org/2000/svg" xmlns:xlink="http://www.w3.org/1999/xlink">
    <!-- Generator: Sketch 64 (93537) - https://sketch.com -->
    <title>Combined Shape</title>
    <desc>Created with Sketch.</desc>
    <g id="Sendbird-logo" stroke="none" stroke-width="1" fill="none" fill-rule="evenodd">
        <path d="M51.4,2.13162821e-14 C79.7,2.13162821e-14 102.7,23.2 102.7,51.4 C102.7,79.6 79.6,102.7 51.3,102.7 C23,102.7 1.42108547e-14,79.6 1.42108547e-14,51.3 L25.2,51.3 C11.2,51 1.42108547e-14,39.6 1.42108547e-14,25.6 L1.42108547e-14,2.13162821e-14 L51.4,2.13162821e-14 Z M383.3002,3 L383.3002,88.5 L365.5002,88.5 L365.5002,79.7 C361.2002,86.2 354.5002,89.8 345.8002,89.8 C329.9002,89.8 317.1002,75.2 317.1002,57.5 C317.1002,39.8 329.8002,25.4 345.8002,25.4 C354.3002,25.4 361.0002,29 365.3002,35.2 L365.5002,35.5 L365.5002,3 L383.3002,3 Z M147.7002,25.3 C160.9002,25.3 172.8002,32.1 174.5002,45.5 L174.5002,45.9 L156.6002,45.9 C156.4002,42.8 153.0002,40 147.3002,40 C143.3002,40 140.3002,41.4 140.3002,44.3 C140.3002,54 175.1002,43.8 175.2002,69.8 C175.2002,81.1 164.5002,89.8 150.5002,89.8 C134.6002,89.8 123.4002,81.8 121.9002,68 L121.9002,67.6 L138.9002,67.6 C139.3002,71.7 143.7002,74.5 149.6002,74.5 C154.9002,74.5 157.9002,72.7 157.9002,69.8 C157.9002,59.6 123.1002,68.7 123.1002,45.6 C123.1002,34 132.5002,25.3 147.7002,25.3 Z M600.0002,3 L600.0002,88.4 L582.3002,88.4 L582.3002,79.6 C578.0002,86.1 571.3002,89.7 562.6002,89.7 C546.5002,89.7 533.8002,75.1 533.8002,57.4 C533.8002,39.7 546.5002,25.3 562.5002,25.3 C571.0002,25.3 577.7002,28.9 582.0002,35.1 L582.2002,35.4 L582.2002,3 L600.0002,3 Z M410.6002,3 L410.6002,35.2 C414.9002,28.8 421.5002,25.3 430.1002,25.3 C446.2002,25.3 458.9002,39.8 458.9002,57.5 C458.9002,75.2 446.2002,89.7 430.2002,89.7 C421.9002,89.7 415.2002,86.2 410.9002,80 L410.7002,79.7 L410.7002,88.4 L392.9002,88.4 L392.9002,3 L410.6002,3 Z M213.7002,25.3 C230.5002,25.3 244.2002,38.5 244.2002,55.5 C244.2002,57.3 244.1002,59.1 243.9002,60.9 L243.8002,61.8 L197.9002,61.8 C199.1002,69.8 205.3002,75 213.6002,75 C220.4002,75 224.7002,72.1 225.8002,67.9 L225.9002,67.7 L243.3002,67.7 C241.3002,80.9 229.8002,89.5 214.6002,89.7 L213.3002,89.7 C195.5002,89.5 181.4002,74.9 181.6002,57.2 C181.6002,39.1 195.7002,25.3 213.7002,25.3 Z M526.6002,25.2 C528.4002,25.3 530.1002,25.5 531.8002,25.9 L532.5002,26 L532.5002,42.2 C530.4002,41.6 528.3002,41.3 526.1002,41.3 C517.6002,41.3 510.8002,46.3 510.6002,57.5 L510.6002,88.4 L492.8002,88.4 L492.8002,26.5 L510.6002,26.5 L510.6002,33.5 C514.1002,28.4 519.7002,25.3 525.8002,25.2 L526.6002,25.2 Z M285.1002,25.3 C300.8412,25.3 310.40757,35.78707 310.500293,52.880014 L310.5002,88.4 L292.7002,88.4 L292.7002,55.6 C292.7002,47.5 287.9002,42.2 280.5002,42.2 C273.2002,42.2 268.4002,47.3 268.3002,55.2 L268.3002,88.4 L250.5002,88.4 L250.5002,26.5 L268.3002,26.5 L268.3002,34.5 C272.2002,28.7 278.0002,25.3 285.1002,25.3 Z M483.1002,26.5 L483.1002,88.3 L465.3002,88.3 L465.3002,26.5 L483.1002,26.5 Z M551.6002,57.3 C551.5002,65.6 558.0002,72.5 566.3002,72.8 L567.1002,72.8 C575.4002,72.6 582.1002,65.8 582.1002,57.5 C582.1002,49.2 575.4002,42.4 567.1002,42.3 C558.8002,42.1 551.8002,48.8 551.6002,57.3 Z M335.0002,57.3 C334.9002,65.6 341.4002,72.5 349.7002,72.8 L350.5002,72.8 C358.8002,72.6 365.5002,65.8 365.5002,57.5 C365.5002,49.2 358.8002,42.4 350.5002,42.3 C342.1002,42.1 335.1002,48.8 335.0002,57.3 Z M426.6002,41.9 L426.0002,41.9 C417.5002,42 410.7002,49 410.8002,57.5 C410.8002,66.1 417.6002,72.7 426.4002,72.7 C434.9002,72.5 441.7002,65.5 441.6002,57.1 C441.5002,48.8 434.8002,42.1 426.6002,41.9 Z M212.9002,39.8 C206.2002,39.8 201.0002,43.1 198.8002,50.1 L198.7002,50.5 L225.6002,50.5 C225.1002,44.1 219.5002,39.8 212.9002,39.8 Z M474.1002,8.52651283e-14 C480.0002,8.52651283e-14 484.9002,4.8 484.9002,10.7 C484.9002,16.6 480.2002,21.5 474.2002,21.5 C468.3002,21.5 463.4002,16.8 463.4002,10.8 C463.4002,4.8 468.1002,8.52651283e-14 474.1002,8.52651283e-14 Z" id="Combined-Shape" fill="#742DDD"></path>
    </g>
</svg>